<svg xmlns="http://www.w3.org/2000/svg" viewBox="0 0 280.33 432"><title>gezicht--03</title><g id="Layer_2" data-name="Layer 2"><g id="gezichten"><g id="gezicht--02"><circle cx="88.74" cy="196.86" r="10.29"/><circle cx="191.59" cy="196.86" r="10.29"/><path id="gezicht" d="M274.91,170.66c-2.69-1.56-6-.72-9.88,2.41V124.86c0-.7-.6-70.59-52.07-104.91a9.4,9.4,0,0,0-9.86-.53C201.85,12.33,195.58,9.5,192,9,176.81,3,159.38,0,140.16,0c-64.49,0-95,34-109.28,62.51-15.4,30.8-15.58,62-15.58,62.36v48.21c-3.87-3.13-7.19-4-9.88-2.41-8.14,4.7-6.22,30.2-.12,53,6,22.56,17.63,46.66,32,46.66a14.66,14.66,0,0,0,2.33-.2L50,301.23a53.22,53.22,0,0,0,3.35,7.67V309c.12.23.26.46.39.69.22.41.45.82.68,1.23q.81,1.45,1.71,2.9l.44.71V382c0,6.11,4.45,13.3,9.91,16L130.39,430a24.65,24.65,0,0,0,19.55,0L213.82,398c5.46-2.73,9.91-9.92,9.91-16V314.47h0c.38-.59.78-1.17,1.13-1.76v-.07a60.15,60.15,0,0,0,5.44-11.42l10.38-31.13a14.68,14.68,0,0,0,2.33.2c14.38,0,26-24.1,32-46.66C281.13,200.87,283,175.36,274.91,170.66Zm-34.51,7.67a8.59,8.59,0,0,0-.61-.61h22.34c0,2.28-.19,4.78-.44,7.41H242.14A9.12,9.12,0,0,0,240.4,178.34Zm-7.66-3.48H28.46v-14c0-8.32,4.06-23.21,9.05-33.19l11.37-22.74.14-.46c3.24-25.9,12.13-42.92,26.44-50.58,20.47-11,45.42,1.23,45.66,1.35a227.12,227.12,0,0,0,38.65,14.3c.89.22,21.53,5.1,42.1-14.64l35.87,35.88c7.79,7.79,14.13,23.09,14.13,34.1v50Zm6.4,11.06-5.3,21.19A12.53,12.53,0,0,1,222.45,216H171a12.53,12.53,0,0,1-11.39-8.89l-5.3-21.19a6.24,6.24,0,0,1,6.4-8.19h72a6.24,6.24,0,0,1,6.4,8.19Zm-87.8-.78H129a9.12,9.12,0,0,0-1.74-6.8,8.59,8.59,0,0,0-.61-.61h27a8.59,8.59,0,0,0-.61.61A9.12,9.12,0,0,0,151.33,185.14Zm-25.34.78-5.3,21.19A12.53,12.53,0,0,1,109.31,216H57.88a12.53,12.53,0,0,1-11.39-8.89l-5.3-21.19a6.24,6.24,0,0,1,6.4-8.19h72a6.24,6.24,0,0,1,6.4,8.19Zm-87.8-.78H18.63c-.24-2.63-.39-5.13-.44-7.41H40.54a8.59,8.59,0,0,0-.61.61A9.12,9.12,0,0,0,38.19,185.14Zm-20-14.87,7.41,4.05v.53H18.17Zm.42-52.7L34,128.32c-.86,1.87-1.69,3.88-2.47,6l-13.37-8.9v-.51C18.17,124.77,18.19,122.07,18.59,117.56ZM48.52,90.78,28.78,74.28q1.36-3.42,3-6.89L50.42,83.72C49.72,86,49.09,88.32,48.52,90.78Zm-.62,2.83C47.41,96,47,98.43,46.62,101L25.34,84q1.11-3.51,2.46-7.14Zm-1.71,10.3-2.93,5.85L22.55,93.93c.58-2.37,1.24-4.82,2-7.33Zm-4.1,8.2-2.9,5.8L20.39,104.17c.42-2.36.92-4.87,1.51-7.49ZM38,120.23,35.15,126,18.89,114.63c.25-2.25.58-4.81,1-7.63Zm-7.38,16.53c-.71,2-1.36,4.13-2,6.2l-10.51-6.68v-7.83ZM28,145.56c-.57,2.2-1,4.36-1.43,6.42l-8.38-5.07v-7.58Zm-1.88,9.15a44,44,0,0,0-.52,6.15v.66l-7.41-4.27v-7.34Zm-.52,9.78v6.91l-7.41-4.05v-7.12ZM60,63.85,43.1,47.75c1.43-2,2.91-4,4.45-5.85L64.4,58.67A46.48,46.48,0,0,0,60,63.85ZM58.52,66a58.67,58.67,0,0,0-3.45,6L37.64,56.11q1.9-3.22,3.95-6.25ZM200.86,51.85l-.13.12-24.9-45q4.21,1,8.23,2.3l26.26,50-8.44-8.44Zm-2.08,1.92q-2,1.81-4,3.32L164.34,4.67c2.75.42,5.46.9,8.11,1.47Zm-6,4.86c-1.45,1-2.88,1.88-4.3,2.67L153.06,3.37c2.72.21,5.4.47,8,.81Zm-6.56,3.9a47.12,47.12,0,0,1-4.73,2L141.94,2.91c2.7,0,5.36.12,8,.27Zm-7.24,2.85a45.09,45.09,0,0,1-5.29,1.26L130.94,3.11c2.6-.13,5.26-.19,7.94-.2ZM170.83,67a39.85,39.85,0,0,1-6.18.19L120.16,4.07c2.56-.31,5.18-.54,7.84-.73Zm-9.56-.15-.8-.15c-2.25-.56-4.77-1.28-7.42-2.11L109.63,5.77q3.76-.75,7.67-1.3Zm-12.41-3.6c-3.14-1-6.39-2.21-9.59-3.42L99.41,8.22c2.43-.7,4.9-1.33,7.43-1.89Zm-14.23-5.23c-4.23-1.7-8.2-3.43-11.5-5.05L89.59,11.46c2.33-.9,4.72-1.72,7.16-2.48ZM118,50.81a71.48,71.48,0,0,0-10.62-3.09L80.33,15.61q3.32-1.66,6.8-3.1ZM103.47,47a57.89,57.89,0,0,0-9.08-.63L71.61,20.54q3.11-2,6.39-3.72Zm-12.38-.48a45.81,45.81,0,0,0-7.76,1.29L63.46,26.24q2.89-2.26,5.94-4.31ZM254.74,174.72l.08.13h-.08Zm3.09.13-3.09-5.06v-4.56l5.6,9.63Zm4.32-2-7.41-12.75V155l7.41,13.41Zm0-9.77-7.41-13.41v-5.75l7.41,14.13Zm0-10.57-7.41-14.13V131.9l7.41,14.9Zm0-11.49-7.41-14.9v-1.27a40.83,40.83,0,0,0-.88-7.94l8.29,17.62ZM251.28,73.59,250.63,72C250.85,72.56,251.08,73.08,251.28,73.59ZM238.22,49l20.46,48.91c1.2,5.52,2,10.49,2.5,14.62L226.82,35.2A104.8,104.8,0,0,1,238.22,49ZM221.95,30.56l40,90.09c.17,2.58.19,4.11.19,4.21v3.64L212.63,23.25A96.57,96.57,0,0,1,221.95,30.56Zm-13.08-9.29,32.6,69.28c-.55-.64-1.12-1.26-1.69-1.83l-7.23-7.23L203.3,22.69A7.06,7.06,0,0,1,208.86,21.28Zm-17.46-9.5a12.52,12.52,0,0,1,4.41,1.64l4.63,9.3v2.61l.88-.83,25.5,51.28L216.42,65.38,187.59,10.43c1.16.41,2.34.81,3.48,1.26ZM61.46,27.87,80.59,48.64a40.06,40.06,0,0,0-6.47,2.7l-.14.08L56,32.73Q58.65,30.19,61.46,27.87Zm-7.28,6.68L71.7,52.77a40.31,40.31,0,0,0-5.46,4.11l-17-16.94Q51.62,37.14,54.18,34.56ZM36.36,58.42l17.54,16q-1.42,3.14-2.62,6.63L32.88,65c.21-.43.41-.85.62-1.28C34.41,61.89,35.39,60.16,36.36,58.42Zm.95,209c-12.77,0-23.73-24-29.23-44.53-6.34-23.68-6.9-46.46-1.22-49.74,2.34-1.35,5.81,1.2,8.45,3.76.1,11.49,3,29.22,6.57,39.92l16.84,50.51A12.27,12.27,0,0,1,37.31,267.42Zm183.85,69.49-.67,5.48c.24-.39.44-.81.67-1.2V382c0,5.15-3.89,11.43-8.49,13.73l-63.88,31.94c-4.68,2.34-12.58,2.34-17.25,0L67.66,395.73c-4.6-2.3-8.49-8.59-8.49-13.73V318.33a86,86,0,0,0,7.38,9.11h0l.29.28q1.35,1.42,2.71,2.7l.12.12h0l.87.79,2.43,25.12q1.36,1,2.78,2l-2.39-24.8.15.12,4.07,3.05h0l2.9,2.18h0l1.25.94a46.08,46.08,0,0,0,4.88,3.14l1.67,22.38q1.32.61,2.67,1.18l-1.65-22.12a80.66,80.66,0,0,0,12.53,5L102.93,371q1.3.39,2.61.75l-1.13-21.45a66,66,0,0,0,12.18,2.18l.68,21.94,2.59.45-.69-22.27h12l.22,23.62c.86.06,1.72.11,2.57.16l-.22-23.78h12l-.3,23.82,2.57-.15.3-23.67h12L159.67,375l2.59-.43.75-22a63.86,63.86,0,0,0,12.18-2L174,371.94c.87-.24,1.75-.48,2.62-.73l1.2-21.47a83.63,83.63,0,0,0,10.35-3.82h0q1.1-.49,2.16-1L188.63,367q1.34-.56,2.67-1.15L193,343.5a48.25,48.25,0,0,0,5.15-3.24h0l.44-.31,2.47-1.85h0l5.21-3.91L203.83,359q1.42-.94,2.78-1.95l2.51-25.1q1.39-1.19,2.78-2.56l.13-.12h0a83.32,83.32,0,0,0,9.14-10.92Zm6.43-36.6c-.23.71-.5,1.43-.8,2.16l2.49-13.19c-.08-.08-.15-.18-.24-.26a6.23,6.23,0,0,0-2.11-1.16l-4.35,23a85.54,85.54,0,0,1-9.73,13.29l5.9-35.51c-.77.31-1.57.65-2.39,1.07l-.43.22-6.24,37.52a47.58,47.58,0,0,1-4.58,4l-3.45,2.59,5.8-40.3-2.76,1.13-6,41.36-1.86,1.39a45.49,45.49,0,0,1-5.58,3.52l5.27-43.23-2.7.93-5.32,43.7c-2.2,1.06-4.54,2-6.95,2.91l4.4-44.13-2.66.76-4.42,44.28c-2.22.72-4.47,1.35-6.68,1.85l3.44-44.15-2.62.6-3.43,44.09a54,54,0,0,1-6.51.84l2.43-43.42-2.6.44-2.41,43.07h-6.42l1.44-42.05-2.58.27-1.43,41.78h-6.41l.52-41.28c-.86,0-1.71.07-2.57.09l-.51,41.19h-6.4l-.38-41.23-2.57-.11.38,41.34H127.2l-1.3-41.92-2.58-.3,1.31,42.22h-5c-.45,0-.92,0-1.39,0l-2.28-43.27-2.6-.47,2.3,43.56a59.53,59.53,0,0,1-6.52-1l-3.29-44.09-2.63-.63,3.29,44.11c-2.23-.56-4.48-1.23-6.69-2l-4.26-44.15-2.66-.78,4.24,44a71.79,71.79,0,0,1-7-3.11L85,298.38l-2.7-1,5.07,42.82a42.44,42.44,0,0,1-3.94-2.6L79.89,335l-5.72-40.68-2.76-1.15L77,332.82l-1.78-1.34a51.82,51.82,0,0,1-6.33-5.75l-5.93-36.44a23.59,23.59,0,0,0-2.78-1.11l5.53,34a83.49,83.49,0,0,1-10.05-15.07l-3.45-18.64a6,6,0,0,0-.89.61A6.15,6.15,0,0,0,50,290.67l.58,3.11-26-77.86A149.15,149.15,0,0,1,18.92,188H38.76l4.95,19.79a15.37,15.37,0,0,0,14.17,11.07h51.43a15.37,15.37,0,0,0,14.17-11.07L128.43,188H151.9l4.95,19.79A15.37,15.37,0,0,0,171,218.87h51.43a15.37,15.37,0,0,0,14.17-11.07L241.57,188h19.84a149,149,0,0,1-5.69,27.91Zm44.66-77.43c-5.5,20.54-16.46,44.53-29.23,44.53a12.21,12.21,0,0,1-1.41-.08l16.84-50.51c3.57-10.69,6.47-28.42,6.57-39.92,2.64-2.56,6.11-5.12,8.45-3.76C279.15,176.43,278.59,199.21,272.25,222.89Z"/><path id="mouth" d="M140.16,298.28c-29.53,0-39.45-19-39.86-19.78l-2.57,1.29c.44.87,11,21.36,42.43,21.36s42-20.49,42.43-21.36L180,278.5C179.92,278.7,169.79,298.28,140.16,298.28Z"/><rect id="wenkbrauw" x="57.88" y="154.28" width="41.14" height="2.87"/><rect id="wenkbrauw-2" data-name="wenkbrauw" x="181.31" y="154.28" width="41.14" height="2.87"/><path id="neus" d="M119,259.86l20.57,10.29a1.45,1.45,0,0,0,1.29,0l20.57-10.29a1.44,1.44,0,1,0-1.29-2.57l-18.49,9.25V238h-2.87v28.53l-18.49-9.25a1.44,1.44,0,1,0-1.29,2.57Z"/></g></g></g></svg>