<svg xmlns="http://www.w3.org/2000/svg" viewBox="0 0 282.9 432"><title>gezicht--01</title><g id="Layer_2" data-name="Layer 2"><g id="gezichten"><g id="gezicht--03"><g id="gezicht"><path d="M152.9,245.06a1.31,1.31,0,0,0-.83,1.65L160.85,273H125.26a1.31,1.31,0,1,0,0,2.61h39.21l-9.92-29.77A1.3,1.3,0,0,0,152.9,245.06Z"/><path d="M106.56,176.17H69.16a4.68,4.68,0,0,0,0,9.35h37.4a4.68,4.68,0,0,0,0-9.35Z"/><path d="M218.76,176.17h-37.4a4.68,4.68,0,0,0,0,9.35h37.4a4.68,4.68,0,0,0,0-9.35Z"/><circle cx="97.21" cy="218.25" r="9.35"/><circle cx="190.71" cy="218.25" r="9.35"/><path d="M278.95,213c-2.66-3.22-6.6-5-11.69-5.33,8.14-26.69.58-60.11-.4-64.17,1.09-3.61,8.25-31-9.49-75.33-7.8-19.49-25.06-33.9-49.91-41.67a135.15,135.15,0,0,0-34.93-5.9C168.92,17.26,140.88-6.87,97,1.91c-44.59,8.92-55.88,60.08-57,66C36.2,70.55,11.14,89.61,2.44,124.43-6.73,161.09,12.81,207,13.79,209.31A13.69,13.69,0,0,0,9,213c-2.62,3.17-4,7.65-4,13.31,0,21.4,19.88,56.88,32.45,58.63C43.53,312.66,53.58,334,67.8,349.29v37.26c0,5.56,4,12.09,9,14.57l58.25,29.05a22.41,22.41,0,0,0,17.77,0l57.9-29c5-2.49,9-9,9-14.58V349.67c14.42-15.29,24.6-36.78,30.71-64.76,12.56-1.75,32.44-37.22,32.44-58.63C282.9,220.63,281.57,216.16,278.95,213Zm-59.6-70.71c-.39-.2-.79-.42-1.19-.64l42-57.58c1.57,5.2,2.79,10.1,3.7,14.69l-36.37,47.62Zm45.13-40.45a129.67,129.67,0,0,1,1.89,16.24l-27.59,34.54V152l-9.12-4.56Zm.23,39.58-25.94,31.06V156.36l27.71-34.69A81,81,0,0,1,264.7,141.41Zm-25.94,53.47,28.55-32.72c.5,4.45.88,9.45,1,14.71l-24.64,27L238.77,199Zm29.56-14.57a109.59,109.59,0,0,1-1.25,16.32l-9.61,10.09v-7.18a1.31,1.31,0,1,0-2.61,0v9.35c0,.2,0,.39,0,.58l-2.74,2.87-6.8-6.8ZM254.82,212.9c0,.71,0,1.42,0,2.13l-1-1Zm11.48-12.06c-.48,2.29-1.06,4.56-1.75,6.76-1.65,0-3.22,0-4.76.09Zm.65-41.81-28.18,32.29V176.12l25.81-30.91C265.09,147.54,266.1,152.51,266.94,159Zm-7.62-77.77-43.2,59.18a73.09,73.09,0,0,1-8.25-6.19L254.3,67.66c.21.49.45,1,.65,1.47C256.63,73.33,258.07,77.37,259.32,81.26Zm-60.81,44.22L246.08,54a58.78,58.78,0,0,1,7.11,11.18L206.1,132.71C203.57,130.46,201,128,198.51,125.49Zm46-73.34-47.65,71.63c-2.52-2.61-5-5.27-7.29-7.87l45.87-72.3A65.4,65.4,0,0,1,244.5,52.15ZM128.74,122.46,179.95,23.7c3.44.34,7.8.91,12.72,1.86L142.3,117.75A113.9,113.9,0,0,1,128.74,122.46Zm66.33-96.41c3.84.82,8,1.86,12.19,3.21l-43,74.76a70.89,70.89,0,0,1-18.44,12.15Zm14.45,4A102.5,102.5,0,0,1,221,34.7l-41.74,69.07c-3.75-4.62-6.12-7.76-6.2-7.86l-.81-1.08Zm13.56,5.75a80.75,80.75,0,0,1,10.47,6.43l-45.61,71.89c-2.63-3-5-5.86-7.13-8.39ZM171.47,23.2H172c.11,0,2.12,0,5.42.28l-51.75,99.81-.74.19a46.73,46.73,0,0,1-10.76,1.47L166.28,18.87a49.73,49.73,0,0,1,4.8,3.95ZM90.28,114.94c-.46-.49-.93-1-1.38-1.5A43.73,43.73,0,0,1,83.78,106L126.19,3.23a85.87,85.87,0,0,1,12.06,2.3ZM140.52,6.17a85.72,85.72,0,0,1,11.29,4.24L100,122a31.63,31.63,0,0,1-7.9-5.32Zm13.41,5.24a82.71,82.71,0,0,1,10.43,6.09L111.6,124.89a32,32,0,0,1-9.48-2ZM123.77,3,82.39,103.25a42.6,42.6,0,0,1-2.61-6.87l-.56-2.23L73.36,100,111,2.76A88.7,88.7,0,0,1,123.77,3Zm-26.3,1.5a95.7,95.7,0,0,1,11-1.54L69.27,104.09,58.56,114.79l-2.64,23.74L32.65,198.6a1.3,1.3,0,0,0-2.2.95v4.72l-1.34,3.46c-1.7-.06-3.41-.12-5.21-.13h-1.5c-.27,0-.5,0-.77,0L95.12,5C95.9,4.84,96.66,4.63,97.46,4.47ZM51.54,178,38.46,209.7,33.12,215c0-2-.06-4.06-.06-6.13V204l21.85-56.4Zm-.93,8.38-1.4,12.56-6.45,6.45Zm24.08-172-62.25,184C11.29,195.08,10,191,8.72,186.47l48.08-153A71.17,71.17,0,0,1,74.69,14.37ZM41.83,69.73l.47-.32.09-.56a104.48,104.48,0,0,1,9-26L7.6,182.25c-1.22-4.79-2.35-10-3.23-15.5L29.3,80.94A83.13,83.13,0,0,1,41.83,69.73Zm-37.46,58,2.31-8.67A100.73,100.73,0,0,1,25.68,85L3.58,161.11C2.25,150.2,2.1,138.61,4.37,127.75ZM13.71,202,77.88,12.24A58,58,0,0,1,92.37,5.75L19.09,207.8a20.13,20.13,0,0,0-3,.64l.16-.07C16.18,208.26,15.17,205.93,13.71,202ZM7.63,226.29c0-5,1.13-9,3.35-11.64,2.44-3,6.29-4.45,11.43-4.45h1.48c2.28,0,4.46.08,6.58.17.07,27.38,2.2,51.26,6.42,71.76C26.4,279.08,7.63,246.71,7.63,226.29ZM217.41,369.24l-.61,5c.22-.36.4-.73.61-1.09v13.42c0,4.68-3.53,10.4-7.71,12.49l-57.9,29c-4.25,2.13-11.43,2.13-15.68,0L77.86,399c-4.18-2.09-7.72-7.8-7.72-12.48V351.68a86,86,0,0,0,9.94,8.5L82.67,387q1.23.93,2.53,1.82L82.6,362a86.39,86.39,0,0,0,12,6.79l2,26.46q1.2.55,2.43,1.07l-2-26.44a96.3,96.3,0,0,0,11.5,4.08l1.39,26.28,2.38.68-1.39-26.32a113.18,113.18,0,0,0,11.23,2.32l.82,26.42,2.35.41-.82-26.49q5.38.73,11.09,1l.25,26.69,2.34.14-.25-26.71c2,.08,4,.12,6,.12,1.69,0,3.37,0,5-.08l-.33,26.71L151,405l.33-26.68q5.71-.27,11.09-1l-.91,26.47,2.35-.39.9-26.38c3.87-.57,7.61-1.33,11.23-2.24l-1.47,26.26c.79-.21,1.59-.43,2.38-.66l1.47-26.2a97.06,97.06,0,0,0,11.51-4l-2.05,26.33q1.22-.51,2.42-1l2-26.32a86.78,86.78,0,0,0,12-6.58l-2.66,26.69q1.29-.86,2.52-1.77l2.66-26.6a85.8,85.8,0,0,0,10.58-8.88Zm-26.7-56.19c2.2,0,3.23.59,3.45,1.13s-.08,1.69-1.64,3.24c-.12.12-12.31,11.71-48.57,11.71s-48.45-11.59-48.57-11.71c-1.56-1.55-1.87-2.7-1.64-3.24s1.25-1.14,3.45-1.14Zm-12.23,58.32L182,326.1a49.1,49.1,0,0,0,8.82-4.19l-4.68,46.94C183.67,369.79,181.1,370.62,178.48,371.38Zm-19.55,3.74,1.52-44.23c3-.33,5.77-.75,8.31-1.23l-2.49,44.46C163.87,374.52,161.42,374.85,158.93,375.11Zm-38.49-1.2-2.35-44.46c2.53.5,5.31.94,8.31,1.3L127.77,375Q124,374.54,120.44,373.91Zm-9.83-2.2-3.37-45.14a79.26,79.26,0,0,0,8.48,2.39l2.35,44.55C115.52,373,113,372.38,110.61,371.72Zm19.51,3.53L128.75,331c2.58.26,5.31.46,8.23.58l.41,44.14C134.92,375.64,132.5,375.47,130.12,375.25Zm9.61.56-.41-44.12c1.51,0,3,.07,4.64.07q1.82,0,3.57,0L147,375.83c-1,0-2,.07-3,.07C142.53,375.89,141.13,375.84,139.73,375.8Zm9.59,0,.55-44.13c2.91-.1,5.65-.28,8.23-.52l-1.52,44.23C154.2,375.56,151.78,375.69,149.31,375.78Zm21.81-46.59a82.77,82.77,0,0,0,8.48-2.25l-3.52,45.13c-2.43.63-4.92,1.18-7.46,1.65Zm-66.29-3.5L108.21,371c-2.62-.79-5.19-1.67-7.67-2.66L96,321.2A44.69,44.69,0,0,0,104.83,325.69ZM238.48,314.8l3.82-20.25-2.54.85-5.3,28.1a107.08,107.08,0,0,1-11.78,18.61l7.22-43.42-2.51.84-7.65,46a86.33,86.33,0,0,1-9.45,9.22L218,301l-1.83-3.67-8.58,59.62a83,83,0,0,1-8.51,5.71l9.61-78.91h-2.35l-9.79,80.38a87.11,87.11,0,0,1-8,3.77l4.76-47.69a12.62,12.62,0,0,0,1-.88c2.91-2.91,2.63-5.07,2.21-6.09a4,4,0,0,0-2.32-2.15L197,283.7h-2.35L192,310.51a12.51,12.51,0,0,0-1.26-.07h-7.48l2.08-26.74H183l-2.08,26.74h-8.71l1.5-26.74h-2.34l-1.5,26.74h-8.69l.92-26.74h-2.34l-.92,26.74h-8.67l.33-26.74h-2.34l-.33,26.74h-8.67l-.25-26.74h-2.34l.25,26.74h-8.67l-.83-26.74h-2.34l.83,26.74h-8.68l-1.41-26.74h-2.34l1.41,26.74H106l-2-26.74H101.7l2,26.74H97.21a10.91,10.91,0,0,0-2.23.22l-2.6-27H90l2.69,27.86a3.77,3.77,0,0,0-1.37,1.63c-.42,1-.69,3.13,2.11,6l4.65,48.14a86.22,86.22,0,0,1-8-3.95L80.65,283.7H78.51l-.17.33,9.22,77.85a82.88,82.88,0,0,1-8.54-6l-8-57.17-1.83,3.67h0l7.21,51.3A87.31,87.31,0,0,1,66.85,344l-7.3-44.81-2.5-.83,6.83,41.93a110.78,110.78,0,0,1-12-20L47.2,295.08l-2.53-.84,3,16c-9-23.78-13.78-54.19-14.48-91.57l18.55-18.55L61.06,116,77.89,99.16a49.65,49.65,0,0,0,9,15.92C93.5,122.82,105.59,131,125.58,126c31.32-7.83,43.24-22,46.56-27,5.57,7.25,29.23,37.2,46,45.6l18,9v46.48l18.6,18.61C254,258.49,248.66,290.4,238.48,314.8ZM251,282.13q6.34-30.75,6.42-71.76c2.53-.11,5.21-.18,8.06-.18,5.14,0,9,1.5,11.43,4.45,2.23,2.69,3.35,6.61,3.35,11.64C280.29,246.71,261.52,279.07,251,282.13Z"/><circle cx="111.23" cy="260.32" r="4.68"/></g></g></g></g></svg>