<svg xmlns="http://www.w3.org/2000/svg" viewBox="0 0 270.62 432"><title>gezicht--02</title><g id="Layer_2" data-name="Layer 2"><g id="gezichten"><g id="gezicht--01"><path d="M265,177.87c-2-1.18-4.44-1-7.16.58V133.36c0-.05,0-1-.09-2.62,0-.17,0-.33,0-.52,0-.65-.08-1.39-.14-2.21v0c-.75-10.06-3.65-32.75-14.88-55.21A109.56,109.56,0,0,0,217.1,39.15l0,0q-1.3-1.14-2.67-2.25l-.16-.13c-.87-.71-1.77-1.41-2.68-2.1l-.28-.22c-.87-.66-1.77-1.3-2.68-1.94l-.42-.3c-.88-.61-1.78-1.2-2.69-1.79l-.56-.37c-.88-.56-1.79-1.11-2.7-1.65l-.69-.42c-.88-.52-1.79-1-2.7-1.51L198,26c-.89-.48-1.82-.94-2.74-1.4l-.95-.48c-.91-.44-1.84-.86-2.77-1.28l-1.08-.49c-.91-.4-1.85-.78-2.79-1.16l-1.21-.5c-.93-.36-1.89-.71-2.85-1l-1.32-.48c-.95-.33-1.92-.63-2.9-.94L178,17.74c-1-.29-2-.56-3-.84l-1.53-.43c-1-.26-2-.49-3-.73l-1.64-.39c-1-.22-2.05-.42-3.09-.62l-1.75-.34c-1-.19-2.1-.35-3.16-.52-.62-.1-1.23-.21-1.86-.29-1.07-.15-2.16-.28-3.25-.41l-1.94-.24c-1.1-.12-2.23-.21-3.35-.3-.68-.06-1.34-.12-2-.17-1.14-.08-2.31-.13-3.48-.19-.69,0-1.37-.08-2.08-.1-1.19,0-2.41-.06-3.62-.08-.62,0-1.22,0-1.84,0-10.13-7.93-27.11-16-51.09-10l.41,2.75a48.84,48.84,0,0,1,20,4.06c-8.9-1.8-23-2.62-40.51,3.22l-7.94,2.65,8.37.07c.08,0,7.62.15,15.92,6.83C75.86,22.85,58.15,26.1,46,32.18l-5.29,2.64H61.16C15.8,69.59,15.25,132.71,15.25,133.36V180.2c-3.77-3-7-3.86-9.66-2.33-9.51,5.49-5.23,40.56.66,62.53C9,250.7,16.52,274.65,26.63,274.65a9.13,9.13,0,0,0,7.23-3,10.91,10.91,0,0,0,2.35-5.23l9.15,27.45v89.27c0,6,4.43,12.77,9.87,15.19l71.67,31.86a27.11,27.11,0,0,0,19.28,0l71.67-31.86c5.45-2.42,9.87-9.24,9.87-15.19V293.91l8-24a7.13,7.13,0,0,0,.92,1.72c1.51,2,4,3,7.31,3,10.12,0,17.63-24,20.39-34.26C270.26,218.42,274.54,183.36,265,177.87ZM147.4,191.92h-21.7a14.12,14.12,0,0,0-1.06-7.2h23.82A14.12,14.12,0,0,0,147.4,191.92ZM46.19,180.1c.11-.05,11.24-5.38,40.41-5.38,19.37,0,30.3,5.32,30.41,5.38a11.74,11.74,0,0,1,5.78,12.57l-5.15,20.58a12.17,12.17,0,0,1-11.06,8.64h-50a12.18,12.18,0,0,1-11.06-8.64L40.4,192.67A11.73,11.73,0,0,1,46.19,180.1Zm109.92,0c.11-.05,11.24-5.38,40.41-5.38,19.37,0,30.3,5.32,30.41,5.38a11.74,11.74,0,0,1,5.78,12.57l-5.15,20.58a12.17,12.17,0,0,1-11.06,8.64h-50a12.18,12.18,0,0,1-11.06-8.64l-5.15-20.58A11.73,11.73,0,0,1,156.11,180.1Zm72.06-2.5c-.46-.23-11.57-5.67-31.66-5.67-30,0-41.19,5.44-41.65,5.67a13.26,13.26,0,0,0-4.86,4.32H123.11a13.26,13.26,0,0,0-4.86-4.32c-.46-.23-11.57-5.67-31.66-5.67-30,0-41.19,5.44-41.65,5.67a13.26,13.26,0,0,0-4.86,4.32H28V113.61c.67-1.81,6-15.41,20.82-26.71C75.26,66.69,111,69.14,136.25,74.76l.3.07.3-.07c85-18.89,106.82,35.1,108.23,38.85v68.31H233A13.26,13.26,0,0,0,228.17,177.6ZM25.24,201.9H21.6L25.24,199ZM18,140.24l7.2-8.65v5.11L18,145Zm7.2-22-6.83,8.57c.16-1.83.39-4,.72-6.45l6.79-8.92c-.4.93-.59,1.48-.61,1.54l-.07.21Zm-7.15,67.69,1.26-1.17H23l-4.77,4.22C18.18,187.89,18.12,186.87,18.09,185.88Zm7.15-4H22.37l2.87-2.65ZM18,148.78l7.2-8.28v4.77L18,153.2Zm0,8.12,7.2-7.92v4.46L18,161Zm0,7.75,7.2-7.58v4.17L18,168.51Zm0,7.4,7.2-7.26v3.92l-7.2,7Zm7.2.13v3.69l-6.54,6H18v-2.78Zm0,23.56L19.5,200.4q-.19-1.3-.36-2.59l6.1-5.16Zm0-6.38-6.46,5.47q-.16-1.41-.28-2.79l6.75-6ZM75.48,71.26,120.65,17l5.48,2.72-4.53-3.86,5.81-7a54.69,54.69,0,0,1,5.9,3.62l-49.59,57C80.84,70,78.09,70.58,75.48,71.26Zm44.21-57-2.22-1.89c-1-.82-2-1.56-3-2.26l3.93-4.93a52.25,52.25,0,0,1,6.66,2.58Zm-3.74.43,2.4,1.19L71.2,72.49A82.75,82.75,0,0,0,62,76l50-62.78A33.6,33.6,0,0,1,115.95,14.69Zm31.08.49c2.54.16,5.05.34,7.51.62l.87.12.39.06L106.35,68q-3.87-.12-7.51,0L146.9,15.17Zm16.46,1.91c1.34.24,2.63.53,3.94.8L116.95,68.79q-3.75-.39-7.31-.58l49.2-51.81c1.35.19,2.73.34,4.06.57Zm22.5,6.2c1,.4,2,.86,3,1.28L138,71.68c-.48.1-.94.18-1.43.28-2.12-.47-4.17-.85-6.22-1.23l50.88-49.11c1.58.53,3.17,1,4.7,1.64Zm6.94,3c2,.94,3.88,2,5.77,3L153.8,69q-5.36.64-11.13,1.73l48.8-45.09c.48.22,1,.4,1.45.63Zm12.94,7.41c.6.4,1.15.86,1.74,1.28l-39,33q-5.06.08-10.53.58L201,30.64c1.66,1,3.31,2,4.9,3.06Zm6,4.46c1.31,1.05,2.57,2.18,3.82,3.31L182.28,68.56c-3.13-.31-6.39-.51-9.81-.56l37.2-31.49c.71.54,1.45,1,2.15,1.59ZM223,48.63l0,.05-28.28,21.9c-2.86-.66-5.84-1.23-9-1.65l31.85-25.79q2.61,2.45,5.06,5.1ZM255.08,177l-7.2,2.85V172.5l7.2-3ZM227.6,54c.17.21.32.45.49.67.49.63,1,1.3,1.43,1.95L206.11,74q-3.88-1.46-8.21-2.62l26.79-20.75C225.67,51.72,226.67,52.82,227.6,54Zm3.4,4.63c.38.54.79,1,1.16,1.58.25.37.47.77.72,1.14.81,1.22,1.59,2.48,2.36,3.75L216.19,78.57a78.94,78.94,0,0,0-7.37-3.52Zm5.56,8.6c.26.44.49.91.74,1.36,1,1.78,2,3.56,2.93,5.42l0,0L225.11,84.28a74.58,74.58,0,0,0-6.51-4.35Zm4.79,9.09q1.7,3.58,3.12,7.14l-11.62,7.48a72.94,72.94,0,0,0-5.68-5.06Zm4.06,9.51c1,2.5,1.82,5,2.59,7.39l-8.52,5.23a71.84,71.84,0,0,0-4.83-5.69Zm3.35,9.85c.78,2.6,1.47,5.14,2.07,7.6l-5.92,3.46a67.11,67.11,0,0,0-3.95-6.27Zm2.67,10.14c.62,2.73,1.13,5.32,1.56,7.76l-5.11,2.83v-3.06l-.07-.44a37.31,37.31,0,0,0-1.74-4Zm-3.55,13.45,5.54-3.08c.46,2.94.8,5.6,1,7.89l-6.58,3.47Zm7.2,47.47-7.2,3v-7.5l7.2-3.21Zm0-10.42-7.2,3.22v-7.67l7.2-3.4Zm0-10.63-7.2,3.4v-7.86l7.2-3.6Zm-7.2-7.25V130.4l6.84-3.61c.12,1.35.19,2.52.25,3.48,0,.21,0,.39,0,.58s0,.22,0,.32c0,.79.05,1.37.06,1.74s0,.42,0,.44v1.51ZM178.58,20.7,127.32,70.19c-2.44-.41-4.84-.78-7.17-1.07L170.36,18.5l.56.11.31.09C173.72,19.3,176.18,20,178.58,20.7Zm69.3,171.67,6.93-2.57c-.18,2.39-.44,4.91-.77,7.49l-6.17,2.13Zm7.18-7.66c0,.77,0,1.55-.08,2.37l-7.1,2.63v-5Zm-1.4,15.36c-.09.61-.19,1.22-.28,1.84h-5Zm-.24-18.15h-4l5.69-2.25v.75C254.54,180.88,254,181.38,253.42,181.93ZM136.75,14.84c.57,0,1.12,0,1.69,0,1.76,0,3.5.07,5.22.14L95.3,68.21c-2.67.16-5.28.38-7.76.71L135.31,14l.67.52.38.3ZM105.42,2.89,104,4.81A50.76,50.76,0,0,0,97.36,3,57.62,57.62,0,0,1,105.42,2.89Zm1,2.84,2-2.61a52.72,52.72,0,0,1,7.46,1.33l-3.41,4.29A42.57,42.57,0,0,0,106.39,5.73Zm3.06,6.74L56.69,78.71A74.68,74.68,0,0,0,44.4,87.13l57.91-76A62,62,0,0,1,109.45,12.48Zm-10-1.72L19.9,115.18c.43-2.57.95-5.32,1.6-8.25L81.33,24.72l2.31-.41a15.77,15.77,0,0,0,2.5-.51l2-.82-1.59-1.49c-.59-.55-1.17-1.06-1.75-1.55l6.9-9.49A71.26,71.26,0,0,1,99.43,10.75ZM66.23,34.57,69.87,32H66l3.34-4.81c3.09-.74,6-1.34,8.43-1.83L23.06,100.54c1-3.93,2.3-8,3.83-12.27L62.07,37.66Q64.09,36.08,66.23,34.57ZM82.84,18.4a36.45,36.45,0,0,0-5.18-3.18l2.58-3.71a78.4,78.4,0,0,1,8.29-.93Zm-6.08-6.26-1.4,2c-1-.42-2-.76-2.83-1C74,12.75,75.38,12.43,76.77,12.14ZM56.25,32l.91-1.37c2.82-.94,5.69-1.78,8.48-2.51L62.94,32ZM54.33,44.42l-23,33.14A110.16,110.16,0,0,1,54.33,44.42ZM18.11,131.15l7.13-8.95v5.49L18,136.34v-3C18,133.29,18,132.5,18.11,131.15ZM33.65,261.72c.2,1.44.24,5.7-1.88,8.13a6.39,6.39,0,0,1-5.13,2c-5.51,0-12.45-12.64-17.69-32.19C1.59,212.24.66,183.94,7,180.29c2.33-1.33,5.69,1.15,8.26,3.63V204.7h2.12a128.4,128.4,0,0,0,4.27,18l13,38.89Zm191.6,121.46c0,5-3.84,10.89-8.39,12.91l-71.67,31.86c-4.67,2.08-12.57,2.08-17.25,0L56.26,396.09c-4.55-2-8.39-7.93-8.39-12.91V301.41L49,304.7c.45,1.34,1,2.74,1.64,4.17l5.55,46.81c.9.74,1.84,1.45,2.77,2.16l-5.06-42.7a82.24,82.24,0,0,0,14.61,18.44l3.14,32.59c.87.48,1.76.93,2.65,1.39l-3.06-31.67.55.44,8,6a44.33,44.33,0,0,0,4.46,2.9l2.08,27.88c.86.34,1.72.71,2.58,1l-2.05-27.51a78,78,0,0,0,12.3,4.93l1.39,26.38c.85.24,1.69.45,2.54.67l-1.39-26.31a64.39,64.39,0,0,0,12,2.16l.83,26.65c.84.15,1.68.28,2.51.41l-.83-26.95h11.82l.26,28.24c.83.06,1.68.14,2.5.18l-.26-28.42h11.81l-.36,28.45c.82,0,1.67-.11,2.5-.16l.35-28.29h11.82l-.93,27.06,2.51-.41.92-26.74c8.28-.53,18.61-3.56,26.81-7.66l-2.15,27.57c.87-.32,1.72-.67,2.58-1l2.18-27.95a44.91,44.91,0,0,0,4.86-3.12l8-6,.19-.15-3.17,31.73c.89-.46,1.77-.91,2.65-1.4l3.25-32.61a81.5,81.5,0,0,0,14.85-18.54l-.26.77-5.13,42.15q1.41-1.07,2.78-2.18l5.67-46.56a46.86,46.86,0,0,0,2-4.85l1.1-3.3Zm-3.75-79.36c-3.41,10.23-13.2,23.81-21.82,30.28l-8,6c-8.61,6.46-24.37,11.72-35.13,11.72h-40c-10.76,0-26.53-5.26-35.14-11.72l-8-6C64.82,327.63,55,314,51.62,303.82l-27.33-82a124.26,124.26,0,0,1-4.09-17.12H28v-20H38.54a13.79,13.79,0,0,0-.85,8.64l5.15,20.58a14.94,14.94,0,0,0,13.77,10.75h50a14.93,14.93,0,0,0,13.77-10.75l4.81-19.23H148l4.81,19.23a14.94,14.94,0,0,0,13.77,10.75h50a14.93,14.93,0,0,0,13.77-10.75l5.15-20.58a13.79,13.79,0,0,0-.84-8.64h10.51v20h7.83a124.38,124.38,0,0,1-4.09,17.12Zm40.18-64.15c-5.24,19.56-12.18,32.19-17.69,32.19-2.41,0-4.12-.64-5.08-1.91-1.78-2.35-.7-6.27-.69-6.3l-.35-.1,13.61-40.84a128.39,128.39,0,0,0,4.27-18h2.12V181.78c2-1.49,4.15-2.43,5.76-1.5C270,183.94,269,212.24,261.67,239.67Z"/><path d="M136.56,301.84c-38.63,0-48.89-9.5-49-9.59l-2,2c.42.42,10.86,10.4,51,10.4s50.53-10,51-10.4l-2-2C185.44,292.34,175.18,301.84,136.56,301.84Z"/><rect x="46.62" y="161.94" width="49.97" height="2.79"/><rect x="176.53" y="161.94" width="49.97" height="2.79"/><circle cx="86.59" cy="203.31" r="9.99"/><circle cx="186.52" cy="203.31" r="9.99"/><path d="M116.57,264.51h41.7l-10.54-31.62a1.25,1.25,0,1,0-2.37.79L154.81,262H116.57a1.25,1.25,0,0,0,0,2.5Z"/><path d="M169.55,378.81c.85-.22,1.69-.41,2.54-.64l1.63-27.63h-2.5Z"/></g></g></g></svg>