<svg xmlns="http://www.w3.org/2000/svg" viewBox="0 0 305.46 432"><title>randy</title><g id="Layer_2" data-name="Layer 2"><g id="gezichten"><g id="gezicht--04"><path id="neus" d="M132.16,260h43.14l-10.92-32.75a1.44,1.44,0,0,0-2.73.91l9.66,29H132.16a1.44,1.44,0,0,0,0,2.87Z"/><path id="wenkbrauw" d="M70.44,160.86h41.14a5.14,5.14,0,1,0,0-10.29H70.44a5.14,5.14,0,1,0,0,10.29Z"/><path id="wenkbrauw-2" data-name="wenkbrauw" d="M193.87,160.86H235a5.14,5.14,0,1,0,0-10.29H193.87a5.14,5.14,0,1,0,0,10.29Z"/><path id="outline_gezicht" data-name="outline gezicht" d="M303.2,185.91c-2.76-6.84-8.12-10.58-15.48-11C284.68,62,237,0,152.73,0s-132,62-135,174.93c-7.36.4-12.72,4.14-15.48,11-9.08,22.45,11,73.61,27.44,89.45l.16-.16c8.48,24.31,21.49,42.59,39.31,55.28V382c0,6.11,4.45,13.3,9.91,16L143,430a24.67,24.67,0,0,0,19.55,0L226.39,398c5.46-2.73,9.91-9.92,9.91-16V330.48c17.82-12.68,30.82-31,39.3-55.27l.16.16C292.15,259.53,312.27,208.37,303.2,185.91ZM152.73,2.87c82.44,0,129.07,61,132.11,172H183.59A11.7,11.7,0,0,0,172,185.14H133.45a11.7,11.7,0,0,0-11.58-10.29H20.62C23.65,63.82,70.29,2.87,152.73,2.87ZM262,185.92l-5.3,21.19A12.53,12.53,0,0,1,245.3,216H183.59a8.86,8.86,0,0,1-8.85-8.85V186.58a8.86,8.86,0,0,1,8.85-8.85h72a6.24,6.24,0,0,1,6.4,8.19ZM171.86,188v13.07c-2.79-2.86-8.29-5.66-19.13-5.66s-16.34,2.79-19.13,5.66V188Zm-41.14-1.44v20.57a8.86,8.86,0,0,1-8.85,8.85H60.16a12.53,12.53,0,0,1-11.39-8.89l-5.3-21.19a6.23,6.23,0,0,1,6.4-8.19h72A8.86,8.86,0,0,1,130.72,186.58ZM4.92,187c2.35-5.82,6.55-8.81,12.77-9.19-.06,2.9-.11,5.81-.11,8.77,0,32.41,3.33,59.74,10.2,82.29C13.1,250.19-2.91,206.36,4.92,187Zm228.8,155.4-.67,5.48c.24-.39.44-.81.67-1.2V382c0,5.15-3.89,11.43-8.49,13.73l-63.89,31.94c-4.67,2.34-12.57,2.34-17.25,0L80.22,395.74c-4.6-2.3-8.49-8.59-8.49-13.73V332.25a102,102,0,0,0,11.55,6.63l2.23,23.06q1.36,1,2.78,2L86,340.18a117.54,117.54,0,0,0,12.9,5L100.82,371q1.32.61,2.67,1.18l-2-26.19c4,1.2,8.19,2.25,12.52,3.12l1.45,27.38q1.3.39,2.61.75l-1.46-27.66q6,1.09,12.3,1.8l.88,28.53,2.59.45-.89-28.72q5.93.57,12.19.8l.27,29.28c.86.06,1.72.11,2.57.16l-.27-29.34q3.18.08,6.43.09,2.9,0,5.72-.07l-.37,29.36,2.57-.15.37-29.3q6.26-.21,12.19-.76l-1,28.78,2.59-.43,1-28.59c4.23-.45,8.33-1,12.31-1.75l-1.56,27.75q1.31-.35,2.62-.73l1.54-27.5q6.5-1.27,12.53-3l-2,26.32q1.34-.56,2.67-1.15l2-25.95a118.27,118.27,0,0,0,12.91-4.9l-2.39,24q1.42-.95,2.78-1.95l2.33-23.33a102.27,102.27,0,0,0,12.23-7Zm-81,7.32c-91.48,0-132.28-50.31-132.28-163.13,0-3,.05-5.93.11-8.85H42.82a8.59,8.59,0,0,0-.61.61,9.43,9.43,0,0,0-1.52,8.28L46,207.8a15.37,15.37,0,0,0,14.17,11.07h61.71a11.73,11.73,0,0,0,11.72-11.7h0c0-.36.44-8.87,19.13-8.87s19.12,8.51,19.13,8.85a11.74,11.74,0,0,0,11.72,11.72H245.3a15.38,15.38,0,0,0,14.18-11.07l5.3-21.19a9.43,9.43,0,0,0-1.52-8.28,8.59,8.59,0,0,0-.61-.61h22.25c.06,2.92.11,5.86.11,8.85C285,299.4,244.21,349.71,152.73,349.71Zm125-80.83c6.87-22.55,10.2-49.89,10.2-82.3,0-3-.05-5.87-.11-8.77,6.21.38,10.41,3.37,12.77,9.19C308.37,206.37,292.35,250.19,277.68,268.88Z"/><path id="mond" d="M204.16,288H101.3c-4.53,0-6,1.89-6.46,3s-.77,3.5,2.43,6.7c.56.56,14.19,13.72,55.46,13.72s54.9-13.16,55.46-13.72c3.2-3.2,2.89-5.57,2.43-6.7S208.68,288,204.16,288Zm2,7.69c-.13.13-13.54,12.88-53.43,12.88s-53.3-12.75-53.42-12.88c-1.71-1.71-2.05-3-1.81-3.57s1.38-1.25,3.8-1.25H204.16c2.42,0,3.55.65,3.8,1.25S207.87,294,206.16,295.69Z"/><circle id="pupil" cx="91.02" cy="196.86" r="10.29"/><circle id="pupil-2" data-name="pupil" cx="214.44" cy="196.86" r="10.29"/></g></g></g></svg>